<svg width="949" height="564" viewBox="0 0 949 564" fill="none" xmlns="http://www.w3.org/2000/svg">
    <mask id="mask0_182_2888" style="mask-type:luminance" maskUnits="userSpaceOnUse" x="893" y="344" width="23" height="23">
        <path d="M914.503 356.189L903.68 345.89C901.57 343.881 898.074 344.902 897.388 347.729L893.873 362.217C893.187 365.041 895.826 367.554 898.622 366.735L912.961 362.547C915.757 361.732 916.613 358.198 914.503 356.189Z" fill="white"/>
    </mask>
    <g mask="url(#mask0_182_2888)">
        <path d="M864.517 308.38L846.272 383.557L979.829 415.962L998.074 340.785L864.517 308.38Z" fill="#FFF33B"/>
        <mask id="mask1_182_2888" style="mask-type:luminance" maskUnits="userSpaceOnUse" x="846" y="308" width="153" height="108">
            <path d="M864.517 308.38L846.272 383.557L979.829 415.962L998.074 340.785L864.517 308.38Z" fill="white"/>
        </mask>
        <g mask="url(#mask1_182_2888)">
            <path d="M898.229 343.9L892.876 365.952L912.994 370.833L918.346 348.781L898.229 343.9Z" fill="#FFF33B"/>
        </g>
    </g>
    <path d="M600.922 558.056C600.957 558.023 600.989 557.991 601.021 557.959C602.913 556.178 604.094 553.652 604.094 550.847C604.094 545.452 599.726 541.081 594.335 541.081C591.699 541.081 589.306 542.127 587.549 543.832C587.517 543.864 584.974 546.293 584.942 546.325C583.05 548.103 581.87 550.632 581.87 553.434C581.87 558.826 586.237 563.2 591.628 563.2C594.264 563.2 596.657 562.154 598.414 560.45C598.446 560.418 600.887 558.084 600.922 558.052V558.056Z" fill="#C1E4EC"/>
    <path d="M880.844 180.508C880.88 180.476 880.912 180.444 880.944 180.411C882.836 178.63 884.016 176.104 884.016 173.299C884.016 167.904 879.648 163.533 874.257 163.533C871.621 163.533 869.229 164.579 867.471 166.284C867.439 166.316 864.896 168.745 864.864 168.777C862.972 170.555 861.792 173.084 861.792 175.886C861.792 181.278 866.16 185.652 871.551 185.652C874.187 185.652 876.579 184.606 878.336 182.902C878.369 182.87 880.809 180.537 880.844 180.505V180.508Z" fill="#C1E4EC"/>
    <path d="M229.478 541.081H218.138C216.923 541.081 215.839 541.643 215.13 542.522C215.101 542.554 212.687 545.433 212.658 545.465C212.071 546.142 211.718 547.025 211.718 547.991V559.339C211.718 560.604 212.741 561.628 214.005 561.628H225.344C226.56 561.628 227.644 561.066 228.352 560.187C228.381 560.155 230.796 557.276 230.825 557.244C231.412 556.566 231.764 555.684 231.764 554.718V543.369C231.764 542.105 230.741 541.081 229.478 541.081Z" fill="#F8CCD4"/>
    <mask id="mask2_182_2888" style="mask-type:luminance" maskUnits="userSpaceOnUse" x="492" y="0" width="23" height="23">
        <path d="M513.091 11.3479L502.268 1.04898C500.158 -0.960105 496.662 0.0604848 495.976 2.88797L492.461 17.3752C491.775 20.1995 494.414 22.7124 497.211 21.894L511.549 17.7058C514.345 16.8906 515.201 13.357 513.091 11.3479Z" fill="white"/>
    </mask>
    <g mask="url(#mask2_182_2888)">
        <path d="M463.105 -36.4606L444.86 38.7163L578.417 71.1214L596.662 -4.05551L463.105 -36.4606Z" fill="#FFF33B"/>
        <mask id="mask3_182_2888" style="mask-type:luminance" maskUnits="userSpaceOnUse" x="444" y="-37" width="153" height="109">
            <path d="M463.105 -36.4606L444.86 38.7163L578.417 71.1214L596.662 -4.05551L463.105 -36.4606Z" fill="white"/>
        </mask>
        <g mask="url(#mask3_182_2888)">
            <path d="M496.816 -0.941186L491.464 21.1113L511.582 25.9925L516.934 3.94003L496.816 -0.941186Z" fill="#FFF33B"/>
        </g>
    </g>
    <mask id="mask4_182_2888" style="mask-type:luminance" maskUnits="userSpaceOnUse" x="-1" y="494" width="23" height="23">
        <path d="M20.74 505.502L9.91662 495.203C7.80647 493.194 4.31093 494.215 3.62465 497.042L0.109862 511.529C-0.576419 514.354 2.06288 516.867 4.85931 516.048L19.1974 511.86C21.9939 511.045 22.8501 507.511 20.74 505.502Z" fill="white"/>
    </mask>
    <g mask="url(#mask4_182_2888)">
        <path d="M-29.2459 457.694L-47.4912 532.871L86.0658 565.276L104.311 490.099L-29.2459 457.694Z" fill="#FFF33B"/>
        <mask id="mask5_182_2888" style="mask-type:luminance" maskUnits="userSpaceOnUse" x="-48" y="457" width="153" height="109">
            <path d="M-29.2459 457.694L-47.4912 532.871L86.0658 565.276L104.311 490.099L-29.2459 457.694Z" fill="white"/>
        </mask>
        <g mask="url(#mask5_182_2888)">
            <path d="M4.46538 493.212L-0.886719 515.265L19.2311 520.146L24.5832 498.093L4.46538 493.212Z" fill="#FFF33B"/>
        </g>
    </g>
    <path d="M946.336 506.241H934.996C933.781 506.241 932.697 506.803 931.988 507.682C931.959 507.714 929.544 510.593 929.515 510.625C928.928 511.302 928.576 512.185 928.576 513.151V524.499C928.576 525.764 929.599 526.788 930.862 526.788H942.202C943.417 526.788 944.501 526.226 945.21 525.347C945.239 525.315 947.654 522.436 947.683 522.404C948.269 521.727 948.622 520.844 948.622 519.878V508.53C948.622 507.265 947.599 506.241 946.336 506.241Z" fill="#F8CCD4"/>
    <path d="M29.7092 173.397C29.7444 173.365 29.7765 173.333 29.8086 173.301C31.7007 171.52 32.8808 168.994 32.8808 166.189C32.8808 160.794 28.513 156.423 23.1222 156.423C20.4861 156.423 18.0937 157.469 16.3363 159.173C16.3042 159.205 13.7612 161.635 13.7291 161.667C11.837 163.445 10.6569 165.974 10.6569 168.776C10.6569 174.168 15.0247 178.542 20.4155 178.542C23.0516 178.542 25.444 177.496 27.2014 175.792C27.2334 175.759 29.6739 173.426 29.7092 173.394V173.397Z" fill="#C1E4EC"/>
</svg>
