<svg width="30" height="30" viewBox="0 0 30 30" xmlns="http://www.w3.org/2000/svg">
    <g transform="translate(1.534 1.498)" fill="#544E4B" fill-rule="nonzero">
        <path d="M13.14 2.34c3.51 0 3.96 0 5.31.09.81 0 1.62.18 2.43.45 1.17.45 2.07 1.35 2.52 2.52.27.81.45 1.62.45 2.43.09 1.35.09 1.8.09 5.31s0 3.96-.09 5.31c0 .81-.18 1.62-.45 2.43a4.349 4.349 0 0 1-2.52 2.52c-.81.27-1.62.45-2.43.45-1.35.09-1.8.09-5.31.09s-3.96 0-5.31-.09c-.81 0-1.62-.18-2.43-.45a4.349 4.349 0 0 1-2.52-2.52c-.27-.81-.45-1.62-.45-2.43-.09-1.35-.09-1.8-.09-5.31s0-3.96.09-5.31c0-.81.18-1.62.45-2.43A4.349 4.349 0 0 1 5.4 2.88c.81-.27 1.62-.45 2.43-.45 1.35 0 1.8-.09 5.31-.09m0-2.34c-3.6 0-4.05 0-5.4.09-1.08 0-2.16.27-3.15.63-1.8.72-3.15 2.07-3.87 3.87-.36.99-.63 2.07-.63 3.15C0 9.18 0 9.63 0 13.14c0 3.51 0 4.05.09 5.4 0 1.08.27 2.16.63 3.15.72 1.8 2.07 3.15 3.87 3.87.99.36 2.07.63 3.15.63 1.44.09 1.89.09 5.4.09 3.51 0 4.05 0 5.4-.09 1.08 0 2.16-.27 3.15-.63 1.8-.72 3.15-2.07 3.87-3.87.36-.99.63-2.07.63-3.15.09-1.44.09-1.89.09-5.4 0-3.51 0-4.05-.09-5.4 0-1.08-.27-2.16-.63-3.15A6.824 6.824 0 0 0 21.69.72C20.7.36 19.62.09 18.54.09 17.1 0 16.65 0 13.14 0z"/>
        <path d="M13.14 6.39c-3.69 0-6.75 3.06-6.75 6.75s3.06 6.75 6.75 6.75 6.75-3.06 6.75-6.75-3.06-6.75-6.75-6.75zm0 11.16c-2.43 0-4.41-1.98-4.41-4.41s1.98-4.41 4.41-4.41 4.41 1.98 4.41 4.41c-.09 2.43-1.98 4.41-4.41 4.41z"/>
        <circle cx="20.16" cy="6.12" r="1.62"/>
    </g>
</svg>
