<svg width="22" height="22" viewBox="0 0 22 22" fill="none" xmlns="http://www.w3.org/2000/svg">
    <path fill-rule="evenodd" clip-rule="evenodd" d="M10.0357 15.5C13.0535 15.5 15.5 13.0536 15.5 10.0357C15.5 7.01787 13.0535 4.57143 10.0357 4.57143C7.01787 4.57143 4.57143 7.01787 4.57143 10.0357C4.57143 13.0536 7.01787 15.5 10.0357 15.5ZM10.0357 18.0714C14.4737 18.0714 18.0714 14.4737 18.0714 10.0357C18.0714 5.59771 14.4737 2 10.0357 2C5.59771 2 2 5.59771 2 10.0357C2 14.4737 5.59771 18.0714 10.0357 18.0714Z" fill="#FAFAFA"/>
    <path fill-rule="evenodd" clip-rule="evenodd" d="M13.7072 14.3462C13.6249 14.5095 13.5796 14.6887 13.5726 14.8712C13.5649 15.0531 13.5949 15.2343 13.6619 15.4033C13.7302 15.5717 13.8322 15.7241 13.9624 15.8509L17.5279 19.5582L17.6108 19.6421C17.8769 19.8719 18.2163 19.9994 18.5678 20C18.9199 20.0006 19.2593 19.8739 19.5247 19.6421C19.6663 19.5262 19.7818 19.3828 19.8628 19.2188C19.9451 19.0588 19.991 18.8814 19.9974 18.7002C20.0095 18.5184 19.9789 18.3372 19.9075 18.1688C19.8437 17.9984 19.741 17.8448 19.6076 17.7212L16.0479 14.0132L15.9585 13.93C15.6925 13.6995 15.3531 13.5727 15.0022 13.5714C14.6507 13.5727 14.3107 13.6995 14.0447 13.93C13.905 14.044 13.7901 14.1861 13.7072 14.3462Z" fill="#FAFAFA"/>
    <path fill-rule="evenodd" clip-rule="evenodd" d="M13.7072 14.3462C13.6249 14.5095 13.5796 14.6887 13.5726 14.8712C13.5649 15.0531 13.5949 15.2343 13.6619 15.4033C13.7302 15.5717 13.8322 15.7241 13.9624 15.8509L17.5279 19.5582L17.6108 19.6421C17.8769 19.8719 18.2163 19.9994 18.5678 20C18.9199 20.0006 19.2593 19.8739 19.5247 19.6421C19.6663 19.5262 19.7818 19.3828 19.8628 19.2188C19.9451 19.0588 19.991 18.8814 19.9974 18.7002C20.0095 18.5184 19.9789 18.3372 19.9075 18.1688C19.8437 17.9984 19.741 17.8448 19.6076 17.7212L16.0479 14.0132L15.9585 13.93C15.6925 13.6995 15.3531 13.5727 15.0022 13.5714C14.6507 13.5727 14.3107 13.6995 14.0447 13.93C13.905 14.044 13.7901 14.1861 13.7072 14.3462Z" fill="#FAFAFA"/>
</svg>
