<svg width="30" height="30" viewBox="0 0 30 30" xmlns="http://www.w3.org/2000/svg" xmlns:xlink="http://www.w3.org/1999/xlink">
    <defs>
        <path id="0vqyq0kpua" d="M0 0h26.759v16.422H0z"/>
        <path id="1wsn37i1ec" d="M0 0h12.399v6.474H0z"/>
    </defs>
    <g fill="none" fill-rule="evenodd">
        <g transform="translate(1.5 12.078)">
            <mask id="oobf2hd8ib" fill="#fff">
                <use xlink:href="#0vqyq0kpua"/>
            </mask>
            <path d="M22.725 5.831a1.913 1.913 0 1 1 0-3.826 1.913 1.913 0 0 1 0 3.826M22.818 0H.33A.33.33 0 0 0 0 .33v6.038s.206 10.054 10.183 10.054c7.534 0 9.496-5.733 10.003-8.54h2.632a3.946 3.946 0 0 0 3.94-3.941A3.945 3.945 0 0 0 22.819 0" fill="#544E4B" mask="url(#oobf2hd8ib)"/>
        </g>
        <g transform="translate(7.048 3)">
            <mask id="dztw0ia0bd" fill="#fff">
                <use xlink:href="#1wsn37i1ec"/>
            </mask>
            <path d="M12.305.099a.333.333 0 0 0-.238-.1l-5.33.004-.018.001c-.863.006-1.772.19-2.022.278C3.127.819.324 2.305 0 6.113a.332.332 0 0 0 .33.36h5.823v-.001l.056.002h.216c.326-.006.892-.042 1.399-.2C9.287 5.81 12.33 4.367 12.399.337a.332.332 0 0 0-.094-.238" fill="#544E4B" mask="url(#dztw0ia0bd)"/>
        </g>
    </g>
</svg>
