<svg width="30" height="30" viewBox="0 0 30 30" xmlns="http://www.w3.org/2000/svg">
    <path d="M15.86 4.499h.098l.242.002c.948.006 2.946.027 4.975.107l.58.024c2.024.09 3.983.242 4.855.496 1.26.36 2.16 1.26 2.52 2.52.36 2.25.63 4.5.63 6.84s-.18 4.59-.63 6.84c-.36 1.26-1.35 2.16-2.52 2.52-1.994.582-9.662.627-10.83.63h-.3c-1.168-.003-8.836-.048-10.83-.63-1.26-.36-2.16-1.26-2.52-2.52-.45-2.25-.63-4.59-.63-6.84 0-2.34.27-4.59.63-6.84.36-1.26 1.26-2.16 2.52-2.52.872-.254 2.83-.406 4.856-.496l.58-.024c2.028-.08 4.026-.101 4.974-.107l.242-.002h.097zm-3.11 5.85v8.28l7.38-4.14-7.38-4.14z" fill="#544E4B" fill-rule="nonzero"/>
</svg>
