<svg width="859" height="859" viewBox="0 0 859 859" fill="none" xmlns="http://www.w3.org/2000/svg">
    <path opacity="0.4" fill-rule="evenodd" clip-rule="evenodd" d="M0 433.83C0.448543 182.666 181.35 0 430.173 0C672.949 0 858.783 185.177 858.999 426.524C859.444 673.122 670.255 861.038 423.674 858.983C312.158 859.774 204.895 815.439 125.454 735.719C46.0119 656 0.889462 547.418 0 433.83ZM366.412 602.417C389.451 610.84 413.932 614.295 438.328 612.567C540.282 608.219 608.18 530.868 605.947 421.706C605.782 397.66 600.95 373.889 591.751 351.782C582.54 329.675 569.139 309.676 552.332 292.951C535.524 276.227 515.651 263.112 493.859 254.374C472.068 245.637 448.8 241.449 425.417 242.058C378.156 244.098 333.444 264.652 300.456 299.504C267.465 334.354 248.698 380.862 248.001 429.487C247.942 454.626 252.922 479.508 262.628 502.582C272.332 525.658 286.555 546.429 304.411 563.605C322.267 580.782 343.372 593.993 366.412 602.417Z" fill="white"/>
</svg>
